{"title":"Transformers 3 Dark of the Moon 2011 SCAM MPG HINDI ICTV","uid":6504125,"size":839813130,"categoryP":"video","categoryS":"movies","magnet":"?xt=urn:btih:d76b0561fd229ca9ce48a8cbe5d0bf35a84d4454&amp;dn=Transformers+3+Dark+of+the+Moon+2011+SCAM+MPG+HINDI+ICTV&amp;tr=udp%3A%2F%2Ftracker.openbittorrent.com%3A80&amp;tr=udp%3A%2F%2Fopen.demonii.com%3A1337&amp;tr=udp%3A%2F%2Ftracker.coppersurfer.tk%3A6969&amp;tr=udp%3A%2F%2Fexodus.desync.com%3A6969","seeders":1,"leechers":0,"uploader":"TorrentXXLS","files":2,"time":1309363558,"description":"Transformers 3 Dark of the Moon 2011 SCAM MPG HINDI ICTV\n\n++++++++++++++++++++++++++++++++++++++++++++++++++++++++\n\n7.3/10 Users: (1,885 votes) 58 reviews | Critics: 10 reviews \n157 min - Action | Adventure | Sci-Fi \n\nFormat : MPEG-PS\nFile size : 801 MiB\nDuration : 2h 23mn\nOverall bit rate : 780 Kbps\n\nVideo\nID : 224 (0xE0)\nFormat : MPEG Video\nFormat version : Version 2\nFormat settings, BVOP : Yes\nFormat settings, Matrix : Default\nDuration : 2h 23mn\nBit rate mode : Constant\nBit rate : 700 Kbps\nNominal bit rate : 1 150 Kbps\nWidth : 352 pixels\nHeight : 288 pixels\nDisplay aspect ratio : 1.222\nFrame rate : 25.000 fps\nStandard : PAL\nColor space : YUV\nBit depth : 8 bits\nScan type : Progressive\nCompression mode : Lossy\nBits/(Pixel*Frame) : 0.276\nStream size : 719 MiB (90%)\n\nAudio\nID : 192 (0xC0)\nFormat : MPEG Audio\nFormat version : Version 1\nFormat profile : Layer 2\nDuration : 2h 23mn\nBit rate mode : Constant\nBit rate : 64.0 Kbps\nChannel(s) : 2 channels\nSampling rate : 48.0 KHz\nCompression mode : Lossy\nStream size : 65.7 MiB (8%)\n\n  &lt;a href=&quot;\nhttp://www.postimg.com/image/41000/photo-40078.jpg&quot; rel=&quot;nofollow&quot; target=&quot;_NEW&quot;&gt;\nhttp://www.postimg.com/image/41000/photo-40078.jpg&lt;/a&gt;","torrent":{"xt":"urn:btih:d76b0561fd229ca9ce48a8cbe5d0bf35a84d4454","amp;dn":"Transformers+3+Dark+of+the+Moon+2011+SCAM+MPG+HINDI+ICTV","amp;tr":["udp%3A%2F%2Ftracker.openbittorrent.com%3A80","udp%3A%2F%2Fopen.demonii.com%3A1337","udp%3A%2F%2Ftracker.coppersurfer.tk%3A6969","udp%3A%2F%2Fexodus.desync.com%3A6969"],"infoHash":"d76b0561fd229ca9ce48a8cbe5d0bf35a84d4454","infoHashBuffer":{"type":"Buffer","data":[215,107,5,97,253,34,156,169,206,72,168,203,229,208,191,53,168,77,68,84]},"announce":[],"urlList":[]}}